<svg viewBox="0 0 256 33" fill="none" xmlns="http://www.w3.org/2000/svg">
<path d="M33 16.5C33 7.66344 25.8366 0.5 17 0.5C8.16344 0.5 1 7.66344 1 16.5C1 25.3366 8.16344 32.5 17 32.5C25.8366 32.5 33 25.3366 33 16.5Z" fill="#F1F5F9"/>
<g opacity="0.1">
<path opacity="0.1" d="M33 31.7441V31.7441C33 32.1616 32.6616 32.5 32.2441 32.5V32.5" stroke="#6037DA" stroke-miterlimit="10"/>
<path opacity="0.1" d="M30.7322 32.5H2.51172" stroke="#6037DA" stroke-miterlimit="10" stroke-dasharray="5.77 5.77"/>
<path opacity="0.1" d="M1.75591 32.5V32.5C1.33843 32.5 1 32.1616 1 31.7441V31.7441" stroke="#6037DA" stroke-miterlimit="10"/>
<path opacity="0.1" d="M1 30.2323V2.01184" stroke="#6037DA" stroke-miterlimit="10" stroke-dasharray="5.77 5.77"/>
<path opacity="0.1" d="M1 1.25591V1.25591C1 0.838431 1.33843 0.5 1.75591 0.5V0.5" stroke="#6037DA" stroke-miterlimit="10"/>
<path opacity="0.1" d="M3.26758 0.5H31.488" stroke="#6037DA" stroke-miterlimit="10" stroke-dasharray="5.77 5.77"/>
<path opacity="0.1" d="M32.2441 0.5V0.5C32.6616 0.5 33 0.838431 33 1.25591V1.25591" stroke="#6037DA" stroke-miterlimit="10"/>
<path opacity="0.1" d="M33 2.7677V30.9882" stroke="#6037DA" stroke-miterlimit="10" stroke-dasharray="5.77 5.77"/>
</g>
<path d="M13.7097 9.70871C13.4581 9.87405 13.2486 10.0965 13.098 10.3581C12.9474 10.6198 12.86 10.9133 12.8428 11.2151V12.9306C12.86 13.2324 12.9474 13.5259 13.098 13.7875C13.2486 14.0492 13.4581 14.2716 13.7097 14.4369L15.5034 15.5002C15.9792 15.7767 16.3703 15.5499 16.3703 14.9969V9.18414C16.3703 8.63121 15.9792 8.40439 15.5034 8.68085L13.7097 9.70871Z" fill="#6037DA"/>
<path d="M13.5225 14.8087C13.2621 14.6782 12.9743 14.6102 12.6825 14.6102C12.3906 14.6102 12.1029 14.6782 11.8424 14.8087L10.4087 15.6221C10.1644 15.7802 9.96092 15.993 9.81471 16.2431C9.66851 16.4933 9.58363 16.774 9.56689 17.0626V19.0556C9.56689 19.5843 9.94674 19.8013 10.4087 19.5369L15.2677 16.7576C15.7296 16.4932 15.7296 16.0628 15.2677 15.7984L13.5225 14.8087Z" fill="#6037DA"/>
<path d="M20.0386 9.70871C20.2902 9.87405 20.4997 10.0965 20.6503 10.3581C20.8008 10.6198 20.8883 10.9133 20.9055 11.2151V12.9306C20.8883 13.2324 20.8008 13.5259 20.6503 13.7875C20.4997 14.0492 20.2902 14.2716 20.0386 14.4369L18.2413 15.5002C17.7656 15.7767 17.3779 15.5499 17.3779 14.9969V9.18414C17.3779 8.63121 17.7656 8.40439 18.2413 8.68085L20.0386 9.70871Z" fill="#6037DA"/>
<path d="M20.0618 14.8087C20.3333 14.6782 20.6332 14.6102 20.9374 14.6102C21.2416 14.6102 21.5415 14.6782 21.8129 14.8087L23.3073 15.6221C23.5615 15.7804 23.773 15.9933 23.9247 16.2435C24.0765 16.4937 24.1643 16.7743 24.181 17.0626V19.0556C24.181 19.5843 23.7887 19.8013 23.3073 19.5369L18.243 16.7576C17.7615 16.4932 17.7615 16.0628 18.243 15.7984L20.0618 14.8087Z" fill="#6037DA"/>
<path d="M12.6675 22.223C12.9281 22.3533 13.216 22.4212 13.508 22.4212C13.8001 22.4212 14.088 22.3533 14.3486 22.223L15.7831 21.4073C16.0272 21.2485 16.2302 21.0353 16.3759 20.7849C16.5216 20.5345 16.6059 20.2538 16.622 19.9653V17.975C16.622 17.447 16.2454 17.2304 15.7831 17.4944L10.9214 20.27C10.4592 20.534 10.4592 20.9639 10.9214 21.2279L12.6675 22.223Z" fill="#6037DA"/>
<path d="M16.874 19.967C16.8911 20.2547 16.979 20.5346 17.1307 20.7843C17.2825 21.034 17.4938 21.2464 17.7478 21.4046L19.2421 22.2232C19.5136 22.3534 19.8135 22.4212 20.1177 22.4212C20.4219 22.4212 20.7218 22.3534 20.9933 22.2232L22.8121 21.2253C23.2936 20.9615 23.2936 20.5319 22.8121 20.268L17.7478 17.4943C17.2663 17.2305 16.874 17.447 16.874 17.9746V19.967Z" fill="#6037DA"/>
<path d="M42.17 9.918H47.012C48.368 9.918 49.436 10.26 50.216 10.944C51.008 11.616 51.404 12.576 51.404 13.824C51.404 15.096 51.014 16.062 50.234 16.722C49.454 17.37 48.38 17.694 47.012 17.694H44.006V22.5H42.17V9.918ZM46.814 16.164C47.654 16.164 48.32 15.99 48.812 15.642C49.304 15.294 49.55 14.688 49.55 13.824C49.55 12.96 49.304 12.354 48.812 12.006C48.32 11.646 47.654 11.466 46.814 11.466H44.006V16.164H46.814ZM55.8209 22.77C54.6569 22.77 53.7749 22.458 53.1749 21.834C52.5869 21.21 52.2929 20.376 52.2929 19.332V13.86H54.1109V19.26C54.1109 20.64 54.8009 21.33 56.1809 21.33C57.3929 21.33 58.3409 20.784 59.0249 19.692V13.86H60.8429V22.5H59.0789V21.276C58.6709 21.792 58.1849 22.17 57.6209 22.41C57.0689 22.65 56.4689 22.77 55.8209 22.77ZM63.1759 13.86H64.9399V15.408C65.2999 14.88 65.8039 14.49 66.4519 14.238C67.1119 13.986 67.8739 13.86 68.7379 13.86V15.282C67.8139 15.282 67.0219 15.432 66.3619 15.732C65.7019 16.032 65.2459 16.506 64.9939 17.154V22.5H63.1759V13.86ZM74.5724 22.77C72.9764 22.77 71.7224 22.374 70.8104 21.582C69.9104 20.778 69.4604 19.65 69.4604 18.198C69.4604 16.782 69.8624 15.66 70.6664 14.832C71.4824 14.004 72.6404 13.59 74.1404 13.59C75.1364 13.59 75.9824 13.782 76.6784 14.166C77.3744 14.538 77.8964 15.06 78.2444 15.732C78.6044 16.392 78.7844 17.148 78.7844 18V18.9H71.1884C71.2484 19.716 71.5904 20.328 72.2144 20.736C72.8504 21.132 73.7084 21.33 74.7884 21.33C75.3404 21.33 75.8984 21.282 76.4624 21.186C77.0264 21.078 77.5244 20.94 77.9564 20.772V22.23C77.5724 22.386 77.0624 22.512 76.4264 22.608C75.8024 22.716 75.1844 22.77 74.5724 22.77ZM77.0744 17.622C77.0504 16.806 76.7804 16.176 76.2644 15.732C75.7604 15.276 75.0404 15.048 74.1044 15.048C73.1924 15.048 72.4844 15.282 71.9804 15.75C71.4764 16.218 71.2124 16.842 71.1884 17.622H77.0744ZM80.7716 9.918H82.6076V15.318H89.1776V9.918H91.0136V22.5H89.1776V16.866H82.6076V22.5H80.7716V9.918ZM98.1095 22.77C96.5135 22.77 95.2595 22.374 94.3475 21.582C93.4475 20.778 92.9975 19.65 92.9975 18.198C92.9975 16.782 93.3995 15.66 94.2035 14.832C95.0195 14.004 96.1775 13.59 97.6775 13.59C98.6735 13.59 99.5195 13.782 100.216 14.166C100.912 14.538 101.434 15.06 101.782 15.732C102.142 16.392 102.322 17.148 102.322 18V18.9H94.7255C94.7855 19.716 95.1275 20.328 95.7515 20.736C96.3875 21.132 97.2455 21.33 98.3255 21.33C98.8775 21.33 99.4355 21.282 99.9995 21.186C100.564 21.078 101.062 20.94 101.494 20.772V22.23C101.11 22.386 100.6 22.512 99.9635 22.608C99.3395 22.716 98.7215 22.77 98.1095 22.77ZM100.612 17.622C100.588 16.806 100.318 16.176 99.8015 15.732C99.2975 15.276 98.5775 15.048 97.6415 15.048C96.7295 15.048 96.0215 15.282 95.5175 15.75C95.0135 16.218 94.7495 16.842 94.7255 17.622H100.612ZM107.405 22.77C106.361 22.77 105.521 22.506 104.885 21.978C104.261 21.438 103.949 20.712 103.949 19.8C103.949 18.84 104.249 18.102 104.849 17.586C105.461 17.058 106.325 16.794 107.441 16.794C108.629 16.794 109.637 17.034 110.465 17.514V17.064C110.465 16.38 110.255 15.876 109.835 15.552C109.427 15.216 108.779 15.048 107.891 15.048C107.363 15.048 106.847 15.102 106.343 15.21C105.851 15.306 105.407 15.444 105.011 15.624V14.148C105.371 13.98 105.839 13.848 106.415 13.752C106.991 13.644 107.549 13.59 108.089 13.59C109.517 13.59 110.573 13.908 111.257 14.544C111.953 15.168 112.301 16.038 112.301 17.154V22.5H110.591V21.528C110.219 21.936 109.775 22.248 109.259 22.464C108.755 22.668 108.137 22.77 107.405 22.77ZM107.855 21.384C108.431 21.384 108.953 21.27 109.421 21.042C109.889 20.814 110.237 20.496 110.465 20.088V18.918C109.685 18.414 108.815 18.162 107.855 18.162C107.159 18.162 106.637 18.3 106.289 18.576C105.953 18.84 105.785 19.248 105.785 19.8C105.785 20.856 106.475 21.384 107.855 21.384ZM114.557 9.198H116.375V22.5H114.557V9.198ZM122.053 22.77C121.177 22.77 120.499 22.518 120.019 22.014C119.551 21.51 119.317 20.796 119.317 19.872V15.264H118.003V13.86H119.317V11.268H121.153V13.86H123.277V15.264H121.153V19.746C121.153 20.322 121.261 20.73 121.477 20.97C121.705 21.21 122.113 21.33 122.701 21.33C123.049 21.33 123.397 21.252 123.745 21.096V22.536C123.289 22.692 122.725 22.77 122.053 22.77ZM125.455 9.198H127.273V15.048C128.101 14.076 129.205 13.59 130.585 13.59C131.737 13.59 132.595 13.896 133.159 14.508C133.723 15.12 134.005 15.942 134.005 16.974V22.5H132.187V17.154C132.187 15.75 131.515 15.048 130.171 15.048C129.595 15.048 129.055 15.186 128.551 15.462C128.059 15.726 127.633 16.134 127.273 16.686V22.5H125.455V9.198ZM146.096 11.466H142.19V9.918H151.856V11.466H147.95V22.5H146.096V11.466ZM156.152 22.77C154.556 22.77 153.302 22.374 152.39 21.582C151.49 20.778 151.04 19.65 151.04 18.198C151.04 16.782 151.442 15.66 152.246 14.832C153.062 14.004 154.22 13.59 155.72 13.59C156.716 13.59 157.562 13.782 158.258 14.166C158.954 14.538 159.476 15.06 159.824 15.732C160.184 16.392 160.364 17.148 160.364 18V18.9H152.768C152.828 19.716 153.17 20.328 153.794 20.736C154.43 21.132 155.288 21.33 156.368 21.33C156.92 21.33 157.478 21.282 158.042 21.186C158.606 21.078 159.104 20.94 159.536 20.772V22.23C159.152 22.386 158.642 22.512 158.006 22.608C157.382 22.716 156.764 22.77 156.152 22.77ZM158.654 17.622C158.63 16.806 158.36 16.176 157.844 15.732C157.34 15.276 156.62 15.048 155.684 15.048C154.772 15.048 154.064 15.282 153.56 15.75C153.056 16.218 152.792 16.842 152.768 17.622H158.654ZM166.906 22.77C165.946 22.77 165.094 22.59 164.35 22.23C163.606 21.87 163.024 21.348 162.604 20.664C162.196 19.968 161.992 19.146 161.992 18.198C161.992 17.25 162.196 16.434 162.604 15.75C163.024 15.054 163.606 14.52 164.35 14.148C165.106 13.776 165.97 13.59 166.942 13.59C168.262 13.59 169.318 13.848 170.11 14.364V15.858C169.33 15.318 168.334 15.048 167.122 15.048C166.138 15.048 165.34 15.318 164.728 15.858C164.128 16.386 163.828 17.166 163.828 18.198C163.828 19.23 164.128 20.01 164.728 20.538C165.328 21.066 166.114 21.33 167.086 21.33C168.298 21.33 169.342 21.042 170.218 20.466V21.942C169.798 22.23 169.318 22.44 168.778 22.572C168.25 22.704 167.626 22.77 166.906 22.77ZM172.195 9.198H174.013V15.048C174.841 14.076 175.945 13.59 177.325 13.59C178.477 13.59 179.335 13.896 179.899 14.508C180.463 15.12 180.745 15.942 180.745 16.974V22.5H178.927V17.154C178.927 15.75 178.255 15.048 176.911 15.048C176.335 15.048 175.795 15.186 175.291 15.462C174.799 15.726 174.373 16.134 174.013 16.686V22.5H172.195V9.198ZM182.988 13.86H184.752V15.102C185.16 14.586 185.658 14.208 186.246 13.968C186.846 13.716 187.47 13.59 188.118 13.59C189.27 13.59 190.128 13.896 190.692 14.508C191.256 15.12 191.538 15.942 191.538 16.974V22.5H189.72V17.154C189.72 15.75 189.048 15.048 187.704 15.048C187.128 15.048 186.588 15.186 186.084 15.462C185.592 15.726 185.166 16.134 184.806 16.686V22.5H182.988V13.86ZM198.072 22.77C197.1 22.77 196.242 22.59 195.498 22.23C194.766 21.858 194.19 21.33 193.77 20.646C193.362 19.95 193.158 19.134 193.158 18.198C193.158 17.274 193.362 16.464 193.77 15.768C194.178 15.072 194.754 14.538 195.498 14.166C196.242 13.782 197.1 13.59 198.072 13.59C199.044 13.59 199.902 13.782 200.646 14.166C201.39 14.538 201.966 15.072 202.374 15.768C202.794 16.464 203.004 17.274 203.004 18.198C203.004 19.134 202.794 19.95 202.374 20.646C201.966 21.33 201.39 21.858 200.646 22.23C199.902 22.59 199.044 22.77 198.072 22.77ZM198.072 21.33C199.008 21.33 199.752 21.042 200.304 20.466C200.856 19.89 201.132 19.134 201.132 18.198C201.132 17.226 200.856 16.458 200.304 15.894C199.752 15.33 199.008 15.048 198.072 15.048C197.136 15.048 196.392 15.33 195.84 15.894C195.288 16.458 195.012 17.226 195.012 18.198C195.012 19.134 195.288 19.89 195.84 20.466C196.392 21.042 197.136 21.33 198.072 21.33ZM204.979 9.198H206.797V22.5H204.979V9.198ZM213.699 22.77C212.727 22.77 211.869 22.59 211.125 22.23C210.393 21.858 209.817 21.33 209.397 20.646C208.989 19.95 208.785 19.134 208.785 18.198C208.785 17.274 208.989 16.464 209.397 15.768C209.805 15.072 210.381 14.538 211.125 14.166C211.869 13.782 212.727 13.59 213.699 13.59C214.671 13.59 215.529 13.782 216.273 14.166C217.017 14.538 217.593 15.072 218.001 15.768C218.421 16.464 218.631 17.274 218.631 18.198C218.631 19.134 218.421 19.95 218.001 20.646C217.593 21.33 217.017 21.858 216.273 22.23C215.529 22.59 214.671 22.77 213.699 22.77ZM213.699 21.33C214.635 21.33 215.379 21.042 215.931 20.466C216.483 19.89 216.759 19.134 216.759 18.198C216.759 17.226 216.483 16.458 215.931 15.894C215.379 15.33 214.635 15.048 213.699 15.048C212.763 15.048 212.019 15.33 211.467 15.894C210.915 16.458 210.639 17.226 210.639 18.198C210.639 19.134 210.915 19.89 211.467 20.466C212.019 21.042 212.763 21.33 213.699 21.33ZM225.124 26.64C224.536 26.64 223.96 26.592 223.396 26.496C222.844 26.4 222.376 26.262 221.992 26.082V24.588C222.892 24.996 223.936 25.2 225.124 25.2C226.24 25.2 227.05 24.954 227.554 24.462C228.07 23.982 228.328 23.25 228.328 22.266V21.348C227.536 22.296 226.372 22.77 224.836 22.77C223.96 22.77 223.174 22.578 222.478 22.194C221.782 21.81 221.236 21.27 220.84 20.574C220.444 19.878 220.246 19.08 220.246 18.18C220.246 17.268 220.438 16.47 220.822 15.786C221.218 15.09 221.758 14.55 222.442 14.166C223.138 13.782 223.918 13.59 224.782 13.59C225.586 13.59 226.264 13.71 226.816 13.95C227.38 14.178 227.902 14.562 228.382 15.102V13.86H230.146V22.068C230.146 23.544 229.732 24.672 228.904 25.452C228.088 26.244 226.828 26.64 225.124 26.64ZM225.196 21.33C225.94 21.33 226.594 21.132 227.158 20.736C227.734 20.34 228.124 19.812 228.328 19.152V17.208C228.1 16.536 227.704 16.008 227.14 15.624C226.588 15.24 225.94 15.048 225.196 15.048C224.608 15.048 224.074 15.18 223.594 15.444C223.126 15.696 222.754 16.062 222.478 16.542C222.214 17.022 222.082 17.568 222.082 18.18C222.082 18.804 222.214 19.356 222.478 19.836C222.754 20.304 223.126 20.67 223.594 20.934C224.074 21.198 224.608 21.33 225.196 21.33ZM233.55 12.168C233.25 12.168 232.998 12.066 232.794 11.862C232.59 11.658 232.488 11.406 232.488 11.106C232.488 10.806 232.59 10.554 232.794 10.35C232.998 10.146 233.25 10.044 233.55 10.044C233.862 10.044 234.12 10.146 234.324 10.35C234.54 10.554 234.648 10.806 234.648 11.106C234.648 11.406 234.54 11.658 234.324 11.862C234.12 12.066 233.862 12.168 233.55 12.168ZM232.632 13.86H234.486V22.5H232.632V13.86ZM241.74 22.77C240.144 22.77 238.89 22.374 237.978 21.582C237.078 20.778 236.628 19.65 236.628 18.198C236.628 16.782 237.03 15.66 237.834 14.832C238.65 14.004 239.808 13.59 241.308 13.59C242.304 13.59 243.15 13.782 243.846 14.166C244.542 14.538 245.064 15.06 245.412 15.732C245.772 16.392 245.952 17.148 245.952 18V18.9H238.356C238.416 19.716 238.758 20.328 239.382 20.736C240.018 21.132 240.876 21.33 241.956 21.33C242.508 21.33 243.066 21.282 243.63 21.186C244.194 21.078 244.692 20.94 245.124 20.772V22.23C244.74 22.386 244.23 22.512 243.594 22.608C242.97 22.716 242.352 22.77 241.74 22.77ZM244.242 17.622C244.218 16.806 243.948 16.176 243.432 15.732C242.928 15.276 242.208 15.048 241.272 15.048C240.36 15.048 239.652 15.282 239.148 15.75C238.644 16.218 238.38 16.842 238.356 17.622H244.242ZM251.126 22.77C250.526 22.77 249.89 22.692 249.218 22.536C248.546 22.392 248.018 22.194 247.634 21.942V20.394C248.102 20.67 248.642 20.898 249.254 21.078C249.866 21.246 250.46 21.33 251.036 21.33C251.684 21.33 252.158 21.252 252.458 21.096C252.758 20.94 252.908 20.688 252.908 20.34C252.908 20.076 252.836 19.866 252.692 19.71C252.56 19.542 252.326 19.392 251.99 19.26C251.666 19.128 251.174 18.972 250.514 18.792C249.806 18.588 249.242 18.384 248.822 18.18C248.414 17.964 248.102 17.694 247.886 17.37C247.682 17.046 247.58 16.626 247.58 16.11C247.58 15.282 247.904 14.658 248.552 14.238C249.212 13.806 250.094 13.59 251.198 13.59C251.774 13.59 252.338 13.644 252.89 13.752C253.442 13.86 253.886 14.01 254.222 14.202V15.714C253.874 15.51 253.442 15.348 252.926 15.228C252.422 15.108 251.906 15.048 251.378 15.048C250.742 15.048 250.256 15.126 249.92 15.282C249.584 15.438 249.416 15.714 249.416 16.11C249.416 16.362 249.488 16.566 249.632 16.722C249.776 16.878 250.004 17.016 250.316 17.136C250.64 17.244 251.15 17.388 251.846 17.568C252.938 17.868 253.694 18.222 254.114 18.63C254.546 19.038 254.762 19.602 254.762 20.322C254.762 21.066 254.456 21.66 253.844 22.104C253.232 22.548 252.326 22.77 251.126 22.77Z" fill="#070A13"/>
</svg>
