<svg width="48" height="48" viewBox="0 0 48 48" fill="none" xmlns="http://www.w3.org/2000/svg">
<circle cx="24" cy="24" r="24" fill="black"/>
<path fill-rule="evenodd" clip-rule="evenodd" d="M29.9393 8.57408C29.9393 10.0369 29.2932 11.4997 28.3813 12.5552C27.4122 13.7218 25.7403 14.5921 24.4103 14.5923C24.2583 14.5923 24.1062 14.5736 24.0113 14.5551C23.9923 14.4811 23.9542 14.2588 23.9542 14.0366C23.9542 12.5552 24.7333 11.0924 25.5692 10.1665C26.6333 8.96296 28.4002 8.05558 29.8822 8C29.9203 8.16674 29.9393 8.37041 29.9393 8.57408ZM35.1661 17.7886C35.203 17.765 35.2283 17.7488 35.2402 17.7399C33.2642 14.981 30.2621 14.9067 29.426 14.9066C28.1485 14.9066 27.0051 15.3483 26.0438 15.7197C25.3466 15.989 24.7453 16.2213 24.2581 16.2213C23.7207 16.2213 23.1053 15.9789 22.4185 15.7084C21.5515 15.3669 20.5707 14.9806 19.4893 14.9806C15.8415 14.9806 12.1365 17.9249 12.1365 23.48C12.1365 26.9426 13.5044 30.5904 15.1954 32.9421C16.6583 34.9419 17.9313 36.5714 19.7553 36.5714C20.6203 36.5714 21.2545 36.3091 21.9215 36.0332C22.6609 35.7273 23.4405 35.4048 24.6193 35.4048C25.8095 35.4048 26.5211 35.7076 27.2074 35.9996C27.8467 36.2716 28.4641 36.5343 29.4262 36.5343C31.4211 36.5343 32.7322 34.7753 33.9861 33.0161C35.3921 31.0164 35.9812 29.0535 36.0001 28.961C35.8861 28.9241 32.0672 27.4241 32.0672 23.1838C32.0672 19.7708 34.6686 18.1068 35.1661 17.7886Z" fill="white"/>
</svg>
