<svg width="48" height="48" viewBox="0 0 48 48" fill="none" xmlns="http://www.w3.org/2000/svg">
<circle cx="24" cy="24" r="24" fill="#F7F7F7"/>
<path d="M38.9999 24.36C38.9999 23.3066 38.9075 22.3066 38.7492 21.3333H23.8364V27.3466H32.375C31.9922 29.32 30.8705 30.9866 29.2076 32.12V36.12H34.3017C37.2843 33.3333 38.9999 29.2266 38.9999 24.36Z" fill="#4285F4"/>
<path d="M23.8365 40C28.1124 40 31.6888 38.56 34.3018 36.12L29.2077 32.12C27.7824 33.08 25.9744 33.6667 23.8365 33.6667C19.7058 33.6667 16.2086 30.8533 14.9548 27.0533H9.70239V31.1733C12.3022 36.4 17.6471 40 23.8365 40Z" fill="#34A853"/>
<path d="M14.9549 27.0533C14.6249 26.0933 14.4534 25.0667 14.4534 24C14.4534 22.9333 14.6381 21.9067 14.9549 20.9467V16.8267H9.70243C8.62026 18.9867 8 21.4133 8 24C8 26.5867 8.62026 29.0133 9.70243 31.1733L14.9549 27.0533Z" fill="#FBBC05"/>
<path d="M23.8365 14.3333C26.1724 14.3333 28.2575 15.1467 29.9072 16.7333L34.4206 12.1733C31.6888 9.58667 28.1124 8 23.8365 8C17.6471 8 12.3022 11.6 9.70239 16.8267L14.9548 20.9467C16.2086 17.1467 19.7058 14.3333 23.8365 14.3333Z" fill="#EA4335"/>
</svg>
