<svg width="48" height="48" viewBox="0 0 48 48" fill="none" xmlns="http://www.w3.org/2000/svg">
<circle cx="24" cy="24" r="24" fill="#0A66C2"/>
<path d="M36.998 35H32.0288V27.2045C32.0288 25.3455 31.9957 22.9525 29.4444 22.9525C26.8562 22.9525 26.4602 24.9778 26.4602 27.0691V34.9994H21.4912V18.9687H26.2615V21.1594H26.3284C27.2997 19.4958 29.1123 18.4985 31.035 18.57C36.0714 18.57 37.0001 21.8885 37.0001 26.2058L36.998 35Z" fill="white"/>
<path d="M15.8843 16.7773C15.884 16.7773 15.8838 16.7773 15.8837 16.7773C14.3017 16.7773 13 15.4734 13 13.8887C13 12.304 14.3017 11 15.8837 11C17.4655 11 18.767 12.3037 18.7673 13.8881C18.7673 13.8883 18.7673 13.8884 18.7673 13.8887C18.7673 15.4731 17.4659 16.7772 15.8843 16.7773Z" fill="white"/>
<path d="M18.3688 35H13.3945V18.9686H18.3688V35Z" fill="white"/>
</svg>
